<svg width="800" height="600" viewBox="0 0 800 600" fill="none" xmlns="http://www.w3.org/2000/svg">
  <rect width="800" height="600" fill="#f5f5f5"/>
  <rect x="50" y="50" width="700" height="500" fill="white" stroke="#e0e0e0" stroke-width="2"/>
  
  <!-- Header -->
  <rect x="70" y="70" width="660" height="40" fill="#2563eb"/>
  <text x="400" y="95" text-anchor="middle" fill="white" font-family="Arial, sans-serif" font-size="16" font-weight="bold">Sales Report - Q4 2024</text>
  
  <!-- Table -->
  <rect x="70" y="130" width="660" height="380" fill="white" stroke="#e0e0e"/>
  
  <!-- Table Header -->
  <rect x="70" y="130" width="660" height="40" fill="#f8fafc"/>
  <line x1="170" y1="130" x2="170" y2="170" stroke="#e0e0e0"/>
  <line x1="320" y1="130" x2="320" y2="170" stroke="#e0e0e0"/>
  <line x1="470" y1="130" x2="470" y2="170" stroke="#e0e0e0"/>
  <line x1="620" y1="130" x2="620" y2="170" stroke="#e0e0e0"/>
  
  <text x="120" y="155" text-anchor="middle" fill="#374151" font-family="Arial, sans-serif" font-size="12" font-weight="bold">Product</text>
  <text x="245" y="155" text-anchor="middle" fill="#374151" font-family="Arial, sans-serif" font-size="12" font-weight="bold">Qty Sold</text>
  <text x="395" y="155" text-anchor="middle" fill="#374151" font-family="Arial, sans-serif" font-size="12" font-weight="bold">Revenue</text>
  <text x="545" y="155" text-anchor="middle" fill="#374151" font-family="Arial, sans-serif" font-size="12" font-weight="bold">Growth</text>
  
  <!-- Table Rows -->
  <line x1="70" y1="210" x2="730" y2="210" stroke="#e0e0e0"/>
  <line x1="70" y1="250" x2="730" y2="250" stroke="#e0e0e0"/>
  <line x1="70" y1="290" x2="730" y2="290" stroke="#e0e0e0"/>
  <line x1="70" y1="330" x2="730" y2="330" stroke="#e0e0e0"/>
  <line x1="70" y1="370" x2="730" y2="370" stroke="#e0e0e0"/>
  <line x1="70" y1="410" x2="730" y2="410" stroke="#e0e0e0"/>
  <line x1="70" y1="450" x2="730" y2="450" stroke="#e0e0e0"/>
  
  <!-- Row Data -->
  <text x="120" y="235" text-anchor="middle" fill="#374151" font-family="Arial, sans-serif" font-size="11">Widget A</text>
  <text x="245" y="235" text-anchor="middle" fill="#374151" font-family="Arial, sans-serif" font-size="11">1,250</text>
  <text x="395" y="235" text-anchor="middle" fill="#374151" font-family="Arial, sans-serif" font-size="11">$12,500</text>
  <text x="545" y="235" text-anchor="middle" fill="#10b981" font-family="Arial, sans-serif" font-size="11">+15%</text>
  
  <text x="120" y="275" text-anchor="middle" fill="#374151" font-family="Arial, sans-serif" font-size="11">Widget B</text>
  <text x="245" y="275" text-anchor="middle" fill="#374151" font-family="Arial, sans-serif" font-size="11">890</text>
  <text x="395" y="275" text-anchor="middle" fill="#374151" font-family="Arial, sans-serif" font-size="11">$8,900</text>
  <text x="545" y="275" text-anchor="middle" fill="#ef4444" font-family="Arial, sans-serif" font-size="11">-3%</text>
  
  <text x="120" y="315" text-anchor="middle" fill="#374151" font-family="Arial, sans-serif" font-size="11">Widget C</text>
  <text x="245" y="315" text-anchor="middle" fill="#374151" font-family="Arial, sans-serif" font-size="11">2,100</text>
  <text x="395" y="315" text-anchor="middle" fill="#374151" font-family="Arial, sans-serif" font-size="11">$21,000</text>
  <text x="545" y="315" text-anchor="middle" fill="#10b981" font-family="Arial, sans-serif" font-size="11">+22%</text>
  
  <!-- Footer -->
  <rect x="70" y="470" width="660" height="30" fill="#f8fafc"/>
  <text x="400" y="490" text-anchor="middle" fill="#6b7280" font-family="Arial, sans-serif" font-size="10">Generated by TidyDocs</text>
</svg>

