<?xml version="1.0" encoding="UTF-8" standalone="no"?>
<svg width="1600" height="900" viewBox="0 0 1600 900" xmlns="http://www.w3.org/2000/svg" role="img" aria-label="TidyDocs cover with three tool cards">
  <defs>
    <filter id="shadow" x="-20%" y="-20%" width="140%" height="140%">
      <feGaussianBlur in="SourceAlpha" stdDeviation="8" result="blur"/>
      <feOffset in="blur" dx="0" dy="4" result="offset"/>
      <feComponentTransfer><feFuncA type="linear" slope="0.25"/></feComponentTransfer>
      <feMerge><feMergeNode in="offset"/><feMergeNode in="SourceGraphic"/></feMerge>
    </filter>
    <linearGradient id="bg" x1="0" y1="0" x2="0" y2="1">
      <stop offset="0%" stop-color="#FFF9F3"/><stop offset="100%" stop-color="#FFF2E8"/>
    </linearGradient>
  </defs>
  <rect x="0" y="0" width="1600" height="900" fill="url(#bg)"/>
  <text x="800" y="110" text-anchor="middle" font-family="Inter, system-ui, -apple-system, Segoe UI, Roboto, Helvetica, Arial" font-size="46" font-weight="700" fill="#111827">
    TidyDocs — Make messy files client‑ready in seconds
  </text>
  <g transform="translate(140, 190)" filter="url(#shadow)">
    <rect rx="28" ry="28" width="430" height="560" fill="#ffffff" stroke="#E5E7EB"/>
    <rect x="40" y="40" width="350" height="170" rx="18" fill="#F3F4F6"/>
    <rect x="180" y="85" width="70" height="90" rx="10" fill="#2563EB"/>
    <rect x="195" y="100" width="40" height="6" rx="3" fill="#BFDBFE"/>
    <rect x="195" y="115" width="40" height="6" rx="3" fill="#BFDBFE"/>
    <rect x="195" y="130" width="28" height="6" rx="3" fill="#BFDBFE"/>
    <text x="215" y="260" text-anchor="middle" font-size="36" font-weight="800" fill="#111827" font-family="Inter, system-ui">CSV → PDF</text>
    <text x="215" y="296" text-anchor="middle" font-size="20" fill="#374151" font-family="Inter, system-ui">Polished, branded reports</text>
    <rect x="40" y="340" width="350" height="180" rx="14" fill="#F9FAFB" stroke="#E5E7EB"/>
    <g fill="#E5E7EB">
      <rect x="40" y="380" width="350" height="2"/>
      <rect x="40" y="420" width="350" height="2"/>
      <rect x="40" y="460" width="350" height="2"/>
      <rect x="40" y="500" width="350" height="2"/>
      <rect x="155" y="340" width="2" height="180"/>
      <rect x="270" y="340" width="2" height="180"/>
    </g>
  </g>
  <g transform="translate(585, 190)" filter="url(#shadow)">
    <rect rx="28" ry="28" width="430" height="560" fill="#ffffff" stroke="#E5E7EB"/>
    <rect x="40" y="40" width="350" height="170" rx="18" fill="#F3F4F6"/>
    <rect x="190" y="85" width="70" height="70" rx="12" fill="#22C55E"/>
    <path d="M225 100c6 0 10 4 10 10s-4 10-10 10-10 4-10 10 4 10 10 10 10 4 10 10-4 10-10 10-10-4-10-10-4-10-10-10-10-4-10-10 4-10 10-10 10-4 10-10 4-10 10-10z" fill="#FDE68A"/>
    <text x="215" y="260" text-anchor="middle" font-size="36" font-weight="800" fill="#111827" font-family="Inter, system-ui">PDF → Word/Excel</text>
    <text x="215" y="296" text-anchor="middle" font-size="20" fill="#374151" font-family="Inter, system-ui">Editable conversions</text>
    <rect x="70" y="350" width="120" height="54" rx="12" fill="#EF4444"/>
    <text x="130" y="384" text-anchor="middle" font-size="20" font-weight="700" fill="#fff" font-family="Inter, system-ui">PDF</text>
    <rect x="255" y="350" width="120" height="54" rx="12" fill="#2563EB"/>
    <text x="315" y="384" text-anchor="middle" font-size="20" font-weight="700" fill="#fff" font-family="Inter, system-ui">DOCX</text>
    <rect x="205" y="365" width="35" height="4" rx="2" fill="#9CA3AF"/>
    <g transform="translate(70, 440)" fill="#E5E7EB">
      <rect x="0" y="0" width="320" height="2"/>
      <rect x="0" y="40" width="320" height="2"/>
      <rect x="0" y="80" width="320" height="2"/>
    </g>
  </g>
  <g transform="translate(1030, 190)" filter="url(#shadow)">
    <rect rx="28" ry="28" width="430" height="560" fill="#ffffff" stroke="#E5E7EB"/>
    <rect x="40" y="40" width="350" height="170" rx="18" fill="#F3F4F6"/>
    <rect x="205" y="90" width="26" height="70" rx="6" fill="#3B82F6"/>
    <rect x="240" y="100" width="26" height="60" rx="6" fill="#10B981"/>
    <rect x="275" y="80" width="26" height="80" rx="6" fill="#F59E0B"/>
    <rect x="310" y="110" width="26" height="50" rx="6" fill="#EF4444"/>
    <text x="215" y="260" text-anchor="middle" font-size="36" font-weight="800" fill="#111827" font-family="Inter, system-ui">Excel → Charts</text>
    <text x="215" y="296" text-anchor="middle" font-size="20" fill="#374151" font-family="Inter, system-ui">Auto dashboards</text>
    <g transform="translate(80, 350)">
      <rect x="0" y="80" width="40" height="70" rx="8" fill="#3B82F6"/>
      <rect x="70" y="60" width="40" height="90" rx="8" fill="#10B981"/>
      <rect x="140" y="40" width="40" height="110" rx="8" fill="#F59E0B"/>
      <rect x="210" y="70" width="40" height="80" rx="8" fill="#EF4444"/>
      <rect x="280" y="100" width="40" height="50" rx="8" fill="#8B5CF6"/>
    </g>
  </g>
</svg>
